<svg xmlns="http://www.w3.org/2000/svg" viewBox="0 0 24 24" fill="#FCB400">
  <title>Airtable</title>
  <path d="M11.992 1.966c-.434 0-.87.086-1.28.257L1.779 5.917c-.503.208-.503.908 0 1.116l8.933 3.694a2.59 2.59 0 0 0 1.28.257 2.59 2.59 0 0 0 1.28-.257l8.933-3.694c.503-.208.503-.908 0-1.116l-8.933-3.694a2.59 2.59 0 0 0-1.28-.257zM22 8.184l-10 4.13-10-4.13v8.847c0 .478.379.874.857.884l8.828.095a2.14 2.14 0 0 0 .63 0l8.828-.095c.478-.01.857-.406.857-.884V8.184zm-11 13.849c0-.441-.284-.769-.834-.557-2.295.888-4.03 1.554-5.637 2.162-.633.239-.866.383-.866.75v.453c0 .176.095.231.243.183.06-.018 5.094-1.958 7.094-2.74v-.251z"/>
</svg>