<svg xmlns="http://www.w3.org/2000/svg" viewBox="0 0 24 24" fill="#5059C9">
  <title>Microsoft Teams</title>
  <path d="M19.488 0a1.817 1.817 0 0 0-1.812 1.818V6.25h-.002A2.265 2.265 0 0 0 15.414 8.5v5.61a.694.694 0 0 0 1.387 0v-3.257h3.293a1.817 1.817 0 0 0 1.812-1.812V1.819A1.817 1.817 0 0 0 20.094 0zM3.126 5.672H8.95c.523 0 .949.425.949.949v10.29a.949.949 0 0 1-.949.949H3.126a.949.949 0 0 1-.949-.949V6.621c0-.524.426-.949.949-.949zM10.852 8.5v8.826a2.442 2.442 0 0 0 2.438 2.44h7.097c.9 0 1.635-.733 1.635-1.635V12.5h-7.674a.695.695 0 0 1 0-1.39h7.674V10.5A2.006 2.006 0 0 0 20.02 8.5z"/>
</svg>