<svg width="100" height="32" fill="none" xmlns="http://www.w3.org/2000/svg"><path d="M16.87 14.78v-.45a1.751 1.751 0 00-.33-.67 2.73 2.73 0 00-1.52-.85 5.397 5.397 0 00-1.06-.13h-.87a.613.613 0 00-.23 0 5.468 5.468 0 00-1 .32 7.182 7.182 0 00-1 .52c-.64.45-1.218.98-1.72 1.58a11.23 11.23 0 00-1.33 2.07c-.414.803-.75 1.644-1 2.51.44 0 .9-.08 1.38-.15l.93-.16.48-.1.5-.11a20.658 20.658 0 004.13-1.38 7.31 7.31 0 001.79-1.18c.226-.215.42-.46.58-.73a2 2 0 00.28-.75.67.67 0 000-.2l-.01-.14zm2.83 0V15c.01.077.01.155 0 .23a3.838 3.838 0 01-.07.47 4.82 4.82 0 01-.72 1.7 5.838 5.838 0 01-1.14 1.24 9.84 9.84 0 01-2.5 1.47 23.31 23.31 0 01-4.7 1.33l-.27.05h-.27l-.55.08c-.35.05-.71.09-1.06.12-.68 0-1.32.08-1.92.08h-.08a9.57 9.57 0 00.37 4.25 5 5 0 00.87 1.51c.345.41.766.75 1.24 1 .461.231.958.38 1.47.44h1.57a8.9 8.9 0 002.54-.61 10 10 0 001.58-.77l.4-.26.14-.08a.88.88 0 011.22.19.86.86 0 01-.12 1.15l-.13.14-.39.39a10.37 10.37 0 01-3.08 2c-.572.242-1.165.432-1.77.57l-.5.09-.56.08h-1.1a7.487 7.487 0 01-2.52-.5 6.998 6.998 0 01-2.41-1.57 8.068 8.068 0 01-1.68-2.51 9.725 9.725 0 01-.48-1.44 13.731 13.731 0 01-.27-1.45c-.05-.5-.07-1-.07-1.5V21.6l-.59-.09-.45-.08-.4-.08-.51-.12H.62a.86.86 0 01.37-1.67h.17c.11 0 .3.06.49.09h.77l.64.05c.087-.449.2-.893.34-1.33.15-.5.33-1 .52-1.48.2-.49.43-.968.69-1.43a14.083 14.083 0 011.84-2.67 11.442 11.442 0 012.52-2.19 8.58 8.58 0 013.31-1.2h1.35c.143-.014.287-.014.43 0a7.731 7.731 0 011.72.35c.59.18 1.153.443 1.67.78.553.364 1.03.833 1.4 1.38.38.556.632 1.187.74 1.85v.98l.11.04z" fill="#29A0A4"/><path d="M48.67 9.8a2.52 2.52 0 00-1.42-.37 2.39 2.39 0 00-1.38.37 1.17 1.17 0 00-.57 1v19.72a1.25 1.25 0 00.57 1 2.4 2.4 0 002.78 0 1.29 1.29 0 00.6-1V10.8a1.16 1.16 0 00-.58-1zM41.95.13a2.57 2.57 0 00-1.48 0 1.16 1.16 0 00-.83.8L37.2 9.25l-1.78 6.06-1.32 4.47L31.95 27l-5-17a.179.179 0 000-.1l-2.63-9a1.17 1.17 0 00-.83-.78 2.54 2.54 0 00-1.47 0 2.43 2.43 0 00-1.22.75 1.15 1.15 0 00-.26 1.12l2.64 9 5.43 18.44v.13a3.57 3.57 0 006.69 0l5.65-19.19a.22.22 0 010-.11L43.43 2a1.15 1.15 0 00-.26-1.12 2.47 2.47 0 00-1.22-.75zM76.53 9.8a2.57 2.57 0 00-1.43-.37 2.39 2.39 0 00-1.38.37 1.16 1.16 0 00-.56 1v19.72a1.22 1.22 0 00.56 1 2.4 2.4 0 002.78 0 1.241 1.241 0 00.6-1V10.8a1.17 1.17 0 00-.57-1zM65.58 20.45h-.06c-.17-.12-.36-.23-.55-.34A12.846 12.846 0 0062.36 19l-1.2-.34c-3.34-1-3.34-2.51-3.34-3 0-1.91 2-2.31 3.66-2.31a12.34 12.34 0 014.52 1l.22.1a1.22 1.22 0 001.14-.12 2.42 2.42 0 001.12-2.54 1.251 1.251 0 00-.64-.94 11.239 11.239 0 00-1.54-.69h-.07c-.27-.09-.56-.18-.9-.27h-.17c-.3-.07-.63-.14-1-.2l-.9-.11h-.34c-.42 0-.84-.05-1.28-.05h-.09c-.394 0-.788.02-1.18.06h-.32l-.71.11-.54.12-.17.05a7.129 7.129 0 00-1.66.64 5.87 5.87 0 00-3.07 5.24c0 1.82.8 5.14 6.17 6.79l1.19.34c.23.07.44.14.64.22.184.064.364.137.54.22 2.14 1 2.14 2.13 2.14 2.55 0 1.91-2 2.31-3.66 2.31a12.389 12.389 0 01-4.52-1l-.21-.09a1.19 1.19 0 00-1.14.11 2.4 2.4 0 00-1.1 2.42 1.26 1.26 0 00.64.94c.498.27 1.016.502 1.55.69h.07c.27.1.57.19.9.28h.17c.31.08.63.14 1 .2s.59.09.89.12h1.78c.394.001.788-.019 1.18-.06h.31c.24 0 .48-.06.71-.11l.55-.11.16-.05a7.68 7.68 0 001.67-.64 5.89 5.89 0 003.07-5.23 6.252 6.252 0 00-3.02-5.2zm16.87-3.12v8.31a7.349 7.349 0 001.08 3.57 6.41 6.41 0 004.61 2.69c.436.1.895.04 1.29-.17a2.31 2.31 0 00.75-.74 1.87 1.87 0 00-.5-2.32 2 2 0 00-.84-.37 3.557 3.557 0 01-1.38-.56 2.93 2.93 0 01-1-2c0-.26-.05-.78-.05-6.31v-6h6l.14-.06a1.37 1.37 0 00.55-.43 2.7 2.7 0 00-.11-3.12 1.233 1.233 0 00-.28-.23c-.3-.15 0-.14-5.38-.14h-5l.12 7.88zm14.84-7.94a2.38 2.38 0 00-.69.25 2.08 2.08 0 00-.4.32 1.32 1.32 0 00-.34.47 1.79 1.79 0 00-.22.9 1.93 1.93 0 001.47 1.9 2.14 2.14 0 001 0 1.999 1.999 0 00.88-3.35 2 2 0 00-1.7-.49zm.69.42a1.58 1.58 0 011.16 1.25 1.57 1.57 0 11-2.95-.43 1.72 1.72 0 011-.83 2.16 2.16 0 01.76 0l.03.01z" fill="#fff"/><path d="M96.77 11.32v.92h.45v-.63h.06s.13.07.35.32l.27.31h.5a2.56 2.56 0 00-.26-.3l-.25-.3a.24.24 0 01.11-.06.6.6 0 00.29-.79.778.778 0 00-.1-.15c-.16-.17-.25-.19-.89-.21h-.55l.02.89zm1-.49a.19.19 0 01.18.17c0 .18-.08.22-.42.22h-.26v-.42h.24c.1-.01.2-.01.3 0l-.04.03z" fill="#fff"/></svg>