<svg xmlns="http://www.w3.org/2000/svg" viewBox="0 0 91 45" xml:space="preserve">
  <path fill="#FFFFFF" d="M54,9h-9l0,21.1L37.2,9h-7.8l-6.7,17.7c-0.7-4.5-5.4-6-9-7.2c-2.4-0.8-5-1.9-4.9-3.2c0-1,1.4-2,4.1-1.9c1.8,0.1,3.4,0.2,6.6,1.8l3.1-5.4c-2.9-1.5-6.9-2.4-10.1-2.4h0c-3.8,0-7,1.2-9,3.3c-1.4,1.4-2.1,3.2-2.1,5.2c0,2.7,1,4.7,3.1,6.3c1.8,1.3,4.1,2.2,6.1,2.8c2.5,0.8,4.5,1.4,4.5,2.9c0,0.5-0.2,1-0.6,1.4c-0.6,0.6-1.6,0.9-2.9,0.9C8.9,31.1,7,30.7,4,29l-2.8,5.5c3,1.7,6.2,2.6,9.8,2.6l0.8,0c3.1-0.1,5.7-0.8,7.7-2.4c0.1-0.1,0.2-0.2,0.3-0.3L19.6,36l7.6,0l1.4-3.5c1.4,0.5,3.1,0.8,4.8,0.8c1.7,0,3.3-0.3,4.7-0.7l0.9,3.4l13.6,0l0-7.9h2.9c7,0,11.1-3.6,11.1-9.5C66.6,11.9,62.5,9,54,9z M33.3,27.1c-1,0-2-0.2-2.9-0.5l2.8-9h0.1l2.8,9C35.3,26.9,34.3,27.1,33.3,27.1L33.3,27.1z M54.5,21.9h-2v-7.2h2c2.6,0,4.7,0.9,4.7,3.6C59.2,21,57.1,21.9,54.5,21.9"/>
</svg>