<svg width="67" height="37" viewBox="0 0 67 37" fill="none" xmlns="http://www.w3.org/2000/svg">
<path d="M5.92498 17.2785C5.18182 17.2785 4.4851 17.1702 3.83484 16.9534C3.18457 16.7212 2.61171 16.396 2.11627 15.978C1.62083 15.5445 1.23376 15.0181 0.955078 14.3988L3.57937 13.1912C3.81161 13.5472 4.12901 13.8569 4.53155 14.1201C4.9341 14.3833 5.39858 14.5149 5.92498 14.5149C6.42043 14.5149 6.80749 14.4452 7.08618 14.3059C7.36486 14.1666 7.5042 13.9653 7.5042 13.7021C7.5042 13.4234 7.38809 13.2221 7.15585 13.0983C6.93909 12.9589 6.64492 12.8428 6.27334 12.7499L5.20504 12.4712C4.07482 12.177 3.18457 11.7126 2.5343 11.0778C1.89951 10.4275 1.58212 9.68435 1.58212 8.84829C1.58212 7.65613 1.96919 6.73492 2.74332 6.08465C3.51744 5.43438 4.60896 5.10925 6.01788 5.10925C6.74556 5.10925 7.41905 5.21763 8.03835 5.43438C8.67314 5.65114 9.21503 5.95305 9.66402 6.34011C10.113 6.72718 10.4227 7.17617 10.593 7.6871L8.06158 8.84829C7.9532 8.53864 7.69 8.29866 7.27197 8.12835C6.85394 7.94256 6.43591 7.84966 6.01788 7.84966C5.61533 7.84966 5.29794 7.93482 5.0657 8.10513C4.84894 8.27543 4.74057 8.50767 4.74057 8.80184C4.74057 9.00312 4.84894 9.17342 5.0657 9.31277C5.28246 9.43663 5.58437 9.54501 5.97143 9.6379L7.48098 10.0095C8.23963 10.1953 8.85119 10.4972 9.31567 10.9152C9.78014 11.3178 10.113 11.7745 10.3143 12.2854C10.531 12.7809 10.6394 13.2686 10.6394 13.7485C10.6394 14.4452 10.4304 15.0645 10.0124 15.6064C9.60983 16.1328 9.05246 16.5431 8.34026 16.8373C7.64355 17.1315 6.83845 17.2785 5.92498 17.2785Z" fill="#0B2370"/>
<path d="M34.1514 16.9999L33.9888 14.84V0.743164H37.0544V16.9999H34.1514ZM30.5053 17.2785C29.437 17.2785 28.508 17.0308 27.7184 16.5354C26.9443 16.0399 26.3404 15.3355 25.9069 14.422C25.4734 13.5085 25.2567 12.4325 25.2567 11.1939C25.2567 9.93981 25.4734 8.86377 25.9069 7.96578C26.3404 7.05231 26.9443 6.34785 27.7184 5.85241C28.508 5.35697 29.437 5.10925 30.5053 5.10925C31.4807 5.10925 32.3012 5.35697 32.967 5.85241C33.6482 6.34785 34.1669 7.05231 34.523 7.96578C34.8791 8.86377 35.0571 9.93981 35.0571 11.1939C35.0571 12.4325 34.8791 13.5085 34.523 14.422C34.1669 15.3355 33.6482 16.0399 32.967 16.5354C32.3012 17.0308 31.4807 17.2785 30.5053 17.2785ZM31.2949 14.4685C31.8213 14.4685 32.2858 14.3291 32.6883 14.0504C33.1063 13.7717 33.4315 13.3847 33.6637 12.8892C33.8959 12.3938 34.0121 11.8287 34.0121 11.1939C34.0121 10.5591 33.8959 9.994 33.6637 9.49856C33.4315 9.00312 33.1063 8.62379 32.6883 8.36059C32.2858 8.0819 31.8135 7.94256 31.2716 7.94256C30.7143 7.94256 30.2266 8.0819 29.8085 8.36059C29.3905 8.62379 29.0576 9.00312 28.8099 9.49856C28.5622 9.994 28.4383 10.5591 28.4383 11.1939C28.4383 11.8287 28.5622 12.3938 28.8099 12.8892C29.0576 13.3847 29.3905 13.7717 29.8085 14.0504C30.2421 14.3291 30.7375 14.4685 31.2949 14.4685Z" fill="#0B2370"/>
<path d="M47.731 16.9999L47.5684 14.84V5.38794H50.634V16.9999H47.731ZM44.0849 17.2785C43.0166 17.2785 42.0876 17.0308 41.298 16.5354C40.5239 16.0399 39.92 15.3355 39.4865 14.422C39.053 13.5085 38.8363 12.4325 38.8363 11.1939C38.8363 9.93981 39.053 8.86377 39.4865 7.96578C39.92 7.05231 40.5239 6.34785 41.298 5.85241C42.0876 5.35697 43.0166 5.10925 44.0849 5.10925C45.0603 5.10925 45.8808 5.35697 46.5466 5.85241C47.2278 6.34785 47.7465 7.05231 48.1026 7.96578C48.4587 8.86377 48.6367 9.93981 48.6367 11.1939C48.6367 12.4325 48.4587 13.5085 48.1026 14.422C47.7465 15.3355 47.2278 16.0399 46.5466 16.5354C45.8808 17.0308 45.0603 17.2785 44.0849 17.2785ZM44.8745 14.4685C45.4009 14.4685 45.8654 14.3291 46.2679 14.0504C46.6859 13.7717 47.0111 13.3847 47.2433 12.8892C47.4755 12.3938 47.5917 11.8287 47.5917 11.1939C47.5917 10.5591 47.4755 9.994 47.2433 9.49856C47.0111 9.00312 46.6859 8.62379 46.2679 8.36059C45.8654 8.0819 45.3931 7.94256 44.8512 7.94256C44.2939 7.94256 43.8062 8.0819 43.3881 8.36059C42.9701 8.62379 42.6372 9.00312 42.3895 9.49856C42.1418 9.994 42.0179 10.5591 42.0179 11.1939C42.0179 11.8287 42.1418 12.3938 42.3895 12.8892C42.6372 13.3847 42.9701 13.7717 43.3881 14.0504C43.8217 14.3291 44.3171 14.4685 44.8745 14.4685Z" fill="#0B2370"/>
<path d="M1.60535 35.9999L1.58212 19.6038H4.64767L4.67089 35.9999H1.60535ZM9.31567 35.9999V30.0546L12.3812 29.3578V35.9999H9.31567ZM9.31567 30.0546C9.31567 29.2649 9.22277 28.6534 9.03698 28.2199C8.85119 27.7864 8.59573 27.4767 8.27059 27.2909C7.94546 27.0896 7.56614 26.989 7.13262 26.989C6.34301 26.9735 5.73145 27.2135 5.29794 27.7089C4.87991 28.2044 4.67089 28.9398 4.67089 29.9152H3.64905C3.64905 28.6766 3.8271 27.6315 4.18319 26.78C4.55478 25.913 5.0657 25.255 5.71597 24.806C6.38172 24.3415 7.14811 24.1092 8.01513 24.1092C9.43953 24.1092 10.5233 24.5428 11.2665 25.4098C12.0096 26.2613 12.3812 27.5773 12.3812 29.3578L9.31567 30.0546Z" fill="#0B2370"/>
<path d="M20.0291 36.2785C18.8834 36.2785 17.8693 36.0231 16.9868 35.5122C16.1043 34.9858 15.4076 34.2658 14.8966 33.3523C14.4012 32.4389 14.1535 31.3861 14.1535 30.1939C14.1535 29.0017 14.4089 27.9489 14.9199 27.0355C15.4463 26.122 16.1585 25.4098 17.0565 24.8989C17.9699 24.3725 19.015 24.1092 20.1917 24.1092C21.1981 24.1092 22.127 24.3802 22.9785 24.9221C23.8456 25.4485 24.5423 26.2304 25.0687 27.2677C25.5951 28.2895 25.8583 29.5359 25.8583 31.0067H22.7463C22.7618 29.9849 22.6534 29.172 22.4212 28.5682C22.2044 27.9489 21.8948 27.5077 21.4922 27.2445C21.0897 26.9658 20.6175 26.8264 20.0756 26.8264C19.5027 26.8264 19.015 26.9503 18.6125 27.198C18.2254 27.4457 17.9312 27.8251 17.73 28.336C17.5287 28.8314 17.428 29.4817 17.428 30.2868C17.428 30.9835 17.5596 31.5641 17.8229 32.0286C18.0861 32.4931 18.4422 32.8492 18.8911 33.0969C19.3401 33.3291 19.8278 33.4452 20.3543 33.4452C20.9581 33.4452 21.4458 33.3136 21.8174 33.0504C22.2044 32.7872 22.4986 32.4466 22.6999 32.0286L25.5796 33.1433C25.239 33.7936 24.8132 34.3587 24.3023 34.8387C23.7914 35.3031 23.1798 35.6592 22.4676 35.907C21.7554 36.1547 20.9426 36.2785 20.0291 36.2785ZM16.1507 31.0067L16.174 28.6147H24.3488V31.0067H16.1507Z" fill="#0B2370"/>
<path d="M35.875 35.9999L35.7125 33.84V24.3879H38.778V35.9999H35.875ZM32.2289 36.2785C31.1606 36.2785 30.2316 36.0308 29.442 35.5354C28.6679 35.0399 28.0641 34.3355 27.6306 33.422C27.1971 32.5085 26.9803 31.4325 26.9803 30.1939C26.9803 28.9398 27.1971 27.8638 27.6306 26.9658C28.0641 26.0523 28.6679 25.3479 29.442 24.8524C30.2316 24.357 31.1606 24.1092 32.2289 24.1092C33.2043 24.1092 34.0249 24.357 34.6906 24.8524C35.3719 25.3479 35.8905 26.0523 36.2466 26.9658C36.6027 27.8638 36.7808 28.9398 36.7808 30.1939C36.7808 31.4325 36.6027 32.5085 36.2466 33.422C35.8905 34.3355 35.3719 35.0399 34.6906 35.5354C34.0249 36.0308 33.2043 36.2785 32.2289 36.2785ZM33.0185 33.4685C33.5449 33.4685 34.0094 33.3291 34.4119 33.0504C34.83 32.7717 35.1551 32.3847 35.3873 31.8892C35.6196 31.3938 35.7357 30.8287 35.7357 30.1939C35.7357 29.5591 35.6196 28.994 35.3873 28.4986C35.1551 28.0031 34.83 27.6238 34.4119 27.3606C34.0094 27.0819 33.5372 26.9426 32.9953 26.9426C32.4379 26.9426 31.9502 27.0819 31.5322 27.3606C31.1142 27.6238 30.7813 28.0031 30.5336 28.4986C30.2858 28.994 30.162 29.5591 30.162 30.1939C30.162 30.8287 30.2858 31.3938 30.5336 31.8892C30.7813 32.3847 31.1142 32.7717 31.5322 33.0504C31.9657 33.3291 32.4611 33.4685 33.0185 33.4685Z" fill="#0B2370"/>
<path d="M41.187 35.9999L41.2102 19.7432H44.2757L44.2525 35.9999H41.187Z" fill="#0B2370"/>
<path d="M51.709 36.2785C50.4239 36.2785 49.4485 35.9612 48.7828 35.3264C48.1325 34.6916 47.8074 33.7859 47.8074 32.6092V20.765H50.8729V31.9357C50.8729 32.4311 50.9813 32.8105 51.1981 33.0737C51.4148 33.3214 51.7322 33.4452 52.1502 33.4452C52.3051 33.4452 52.4754 33.4143 52.6612 33.3523C52.847 33.2749 53.0405 33.1666 53.2418 33.0272L54.3101 35.3264C53.9385 35.6051 53.5205 35.8296 53.056 35.9999C52.607 36.1857 52.158 36.2785 51.709 36.2785ZM45.9263 26.989V24.3879H53.7759V26.989H45.9263Z" fill="#0B2370"/>
<path d="M55.9183 35.9999L55.8951 19.6038H58.9606L58.9839 35.9999H55.9183ZM63.6286 35.9999V30.0546L66.6942 29.3578V35.9999H63.6286ZM63.6286 30.0546C63.6286 29.2649 63.5357 28.6534 63.35 28.2199C63.1642 27.7864 62.9087 27.4767 62.5836 27.2909C62.2584 27.0896 61.8791 26.989 61.4456 26.989C60.656 26.9735 60.0444 27.2135 59.6109 27.7089C59.1929 28.2044 58.9839 28.9398 58.9839 29.9152H57.962C57.962 28.6766 58.1401 27.6315 58.4962 26.78C58.8677 25.913 59.3787 25.255 60.0289 24.806C60.6947 24.3415 61.4611 24.1092 62.3281 24.1092C63.7525 24.1092 64.8363 24.5428 65.5794 25.4098C66.3226 26.2613 66.6942 27.5773 66.6942 29.3578L63.6286 30.0546Z" fill="#0B2370"/>
<path d="M14.6819 16.4029C15.6108 16.9138 16.6714 17.1693 17.8635 17.1693C19.0557 17.1693 20.1007 16.9138 20.9987 16.4029C21.9122 15.8765 22.6244 15.1566 23.1353 14.2431C23.6617 13.3296 23.9249 12.2768 23.9249 11.0847C23.9249 9.89249 23.6617 8.83968 23.1353 7.92621C22.6244 7.01273 21.9122 6.30054 20.9987 5.78961C20.0853 5.2632 19.0247 5 17.8171 5C16.6404 5 15.5876 5.2632 14.6586 5.78961C13.7452 6.30054 13.0252 7.01273 12.4988 7.92621C11.9879 8.83968 11.7324 9.89249 11.7324 11.0847C11.7324 12.2768 11.9956 13.3296 12.522 14.2431C13.0484 15.1566 13.7684 15.8765 14.6819 16.4029Z" fill="url(#paint0_linear_293_5987)"/>
<defs>
<linearGradient id="paint0_linear_293_5987" x1="11.7324" y1="17.1693" x2="26.4003" y2="11.9296" gradientUnits="userSpaceOnUse">
<stop stop-color="#0B2370"/>
<stop offset="0.199634" stop-color="#1133AA"/>
<stop offset="0.399268" stop-color="#0068DC"/>
<stop offset="0.598902" stop-color="#00B2B1"/>
<stop offset="0.798537" stop-color="#2BBE60"/>
<stop offset="1" stop-color="#A8E41B"/>
</linearGradient>
</defs>
</svg>
