<svg xmlns="http://www.w3.org/2000/svg" height="800" width="1200" viewBox="-32.700315 -9.67475 283.40273 58.0485"><path d="M9.3152 38.2844c-2.0575 0-3.807-.212-5.2485-.6388-1.4414-.4242-2.797-.949-4.0667-1.5703v-4.7252h.2661c1.2448 1.1663 2.655 2.0686 4.2295 2.709 1.575.64 3.0934.9597 4.554.9597 2.0824 0 3.6574-.4349 4.724-1.3016 1.0673-.8695 1.6005-2.013 1.6005-3.4326 0-1.1283-.2793-2.0464-.8381-2.7569-.5588-.7092-1.4483-1.2351-2.6671-1.5771-.8764-.2545-1.6769-.464-2.4005-.6283-.7237-.1658-1.6318-.3869-2.7234-.6669-.9776-.2528-1.8539-.5762-2.6284-.9712a7.3737 7.3737 0 01-2.057-1.5416c-.5847-.6214-1.0375-1.3546-1.362-2.1986-.3238-.843-.4855-1.8172-.4855-2.921 0-2.2972.8954-4.2226 2.6857-5.7775 1.7908-1.554 4.0762-2.331 6.8584-2.331 1.5868 0 3.0887.159 4.5047.4755 1.4155.318 2.727.7687 3.9336 1.3519v4.513h-.2857c-.9018-.8217-2.0575-1.54-3.4677-2.154-1.4096-.6133-2.8893-.9209-4.4383-.9209-1.7527 0-3.1692.4088-4.248 1.2258-1.08.818-1.6197 1.8915-1.6197 3.2222 0 1.2045.3176 2.1613.9522 2.8707.635.7104 1.5554 1.23 2.763 1.5597.799.2163 1.7771.4602 2.9328.7333 1.1558.2729 2.1142.5231 2.8761.7517 1.9557.5958 3.3833 1.4976 4.2857 2.7021.9017 1.2061 1.3524 2.6905 1.3524 4.4542 0 1.1044-.2254 2.1965-.676 3.2737-.4511 1.0788-1.0826 1.9923-1.8953 2.741-.9144.8257-1.9471 1.4593-3.096 1.9047-1.1488.4426-2.5876.6653-4.3148.6653m64.3532-.509H57.2338V9.4234h3.7746V34.425h12.66v3.3504m21.8063-28.352l-9.585 15.8035v12.5485h-3.774V25.6272l-9.585-16.2038h4.1875l7.333 12.5087 7.4304-12.5087h3.993m26.5376 28.352h-4.2247l-12.528-24.449v24.449h-3.52V9.4234h5.3475l11.405 22.4489V9.4233h3.5202v28.3521m29.0651-14.2052c0-2.1762-.361-4.0344-1.083-5.5733-.7247-1.5385-1.7969-2.7377-3.2178-3.5982-1.0016-.6085-2.0738-1.0443-3.2165-1.311-1.1414-.2661-2.561-.3987-4.2615-.3987h-2.8745v21.8208h2.8745c1.6747 0 3.1391-.1326 4.3958-.3993 1.2554-.2645 2.4036-.7592 3.4445-1.48 1.307-.887 2.291-2.0677 2.9492-3.5431.6595-1.4748.9893-3.3134.9893-5.5172zm3.9236.0583c0 2.5898-.5239 4.925-1.5702 7.0059-1.0478 2.0834-2.4538 3.7067-4.2181 4.8747-1.4332.9011-2.8908 1.5056-4.3687 1.8093-1.478.3049-3.3672.457-5.6635.457H132.65V9.4234h6.4544c2.6641 0 4.7555.1997 6.2728.5995 1.516.3997 2.8094.949 3.8747 1.6467 1.8268 1.206 3.2423 2.8086 4.2453 4.8083 1.003 1.9992 1.5037 4.3832 1.5037 7.1506m21.0484-6.2132c0-.8234-.148-1.5534-.4384-2.1922-.2932-.6388-.7437-1.161-1.3558-1.5666-.5334-.354-1.1563-.6043-1.8675-.749-.7139-.1459-1.596-.2185-2.6519-.2185h-3.7376v10.6665h3.3182c1.0803 0 2.0534-.0954 2.918-.2853.8645-.1891 1.6028-.5815 2.2121-1.1768.547-.5311.95-1.1637 1.212-1.8963.2592-.7343.3909-1.5958.3909-2.5818zm8.1212 20.3601h-4.8912l-8.9736-11.2814h-4.3076v11.2814h-3.7757V9.4234h7.3138c1.6245 0 2.9858.0885 4.085.2661 1.0967.1775 2.1417.59 3.131 1.2368.9922.6346 1.7752 1.4531 2.3534 2.4557.5781 1.002.8659 2.2451.8659 3.7295 0 2.0808-.5266 3.8186-1.5825 5.214-1.0545 1.3958-2.4904 2.4297-4.3063 3.1028l10.0878 12.3471m19.2596-11.1329l-4.389-13.3676-4.3674 13.3676zm-16.1747 11.133l9.5626-28.3521h4.6456l9.5626 28.352h-3.9833l-2.5677-7.9097h-10.8479l-2.5691 7.9097h-3.8028" fill="#072748"/><path d="M27.7859 12.0937L18.4199 0h-2.0596l10.221 13.198a15.981 15.981 0 011.2046-1.1043m3.3071-2.0994L23.3528 0h-2.0606l8.3481 10.7784c.4692-.2842.9533-.5482 1.4527-.784m3.8806-1.2512L28.2036 0H26.143l7.097 9.1641c.5646-.1723 1.1446-.3106 1.7336-.421m2.9634-.2767c.623 0 1.236.0398 1.8397.1087L33.135 0h-2.059l6.5632 8.4744c.0991-.0021.1972-.0076.2979-.0076m5.2225.8728a15.8573 15.8573 0 013.2736 1.5666L37.9865 0h-2.0597l7.2328 9.3396" fill="#fab63d"/><path d="M37.937 33.204c-5.2854 0-9.585-4.1961-9.585-9.3528 0-5.1582 4.2996-9.3543 9.585-9.3543 5.2793 0 9.5745 4.196 9.5745 9.3543 0 5.1567-4.2952 9.3528-9.5744 9.3528zm0-24.193c-8.391 0-15.2166 6.6574-15.2166 14.8402 0 8.1865 6.8256 14.8478 15.2167 14.8478 8.3843 0 15.2067-6.6613 15.2067-14.8478 0-8.1828-6.8224-14.8403-15.2067-14.8403" fill="#fab63d"/><path d="M213.1407 12.3958h.7383c.6392 0 1.258-.0322 1.258-.7915 0-.6515-.5632-.7273-1.053-.7273h-.9433zm-.7166-2.1047h1.7792c1.117 0 1.6504.445 1.6504 1.3455 0 .8574-.5443 1.2151-1.2486 1.291l1.3571 2.0835h-.7708l-1.2812-2.0294h-.7695v2.0294h-.7166zm1.5404 5.8163c1.8457 0 3.321-1.4967 3.321-3.4502 0-1.9536-1.4753-3.4513-3.321-3.4513-1.8553 0-3.3197 1.4977-3.3197 3.4513 0 1.9535 1.4644 3.4502 3.3197 3.4502zm0-7.4872c2.1932 0 4.0376 1.7362 4.0376 4.037 0 2.3008-1.8444 4.0354-4.0376 4.0354-2.2027 0-4.0362-1.7346-4.0362-4.0354s1.8335-4.037 4.0362-4.037" fill="#072748"/></svg>